<?xml version="1.0" standalone="yes"?>
<svg xmlns="http://www.w3.org/2000/svg" width="633" height="198">
<path style="fill:#010101; stroke:none;" d="M0 0L0 198L633 198L633 0L0 0z"/>
<path style="fill:#f4dfe5; stroke:none;" d="M207 16L207 31L220 31L219 121L220 121L221 30L208 30L208 17L265 17L296 18C292.111 13.5492 278.681 16 273 16L207 16z"/>
<path style="fill:#f55422; stroke:none;" d="M208 17L208 30L221 30C221 54.9361 220 79.9881 220 105C220 115.364 221.444 127.301 208 128L208 140L260 140L260 127L245 127L245 100C245 96.6195 244.042 91.276 246.028 88.3187C253.01 77.9232 264.856 95.2811 265 102L276 102L276 60L263 60L264 74L245 74C245 62.8467 241.055 41.4019 248.653 32.2245C261.833 16.3034 284.872 35.5551 285 51L296 51L296 18L266 17L208 17z"/>
<path style="fill:#f4dfe5; stroke:none;" d="M295 19L295 26L296 26L295 19M296 26L296 51L297 51L296 26M254 28L254 29L269 29L254 28M251 29L251 30L254 30L251 29M269 29L269 30L273 30L269 29M249 30L250 31L249 30M273 30L273 31L276 31L273 30M248 31L249 32L248 31M276 31L277 32L276 31M277 32L278 33L277 32M93 33L93 34L97 34L93 33z"/>
<path style="fill:#6dc6c8; stroke:none;" d="M97.6667 33.3333L98.3333 33.6667L97.6667 33.3333z"/>
<path style="fill:#f4dfe5; stroke:none;" d="M99 33L99 34L103 34L99 33M247 33L248 34L247 33M278 33L279 34L278 33M89 36L92 35L89 36z"/>
<path style="fill:#6dc6c8; stroke:none;" d="M92 34L93 35L92 34z"/>
<path style="fill:#4ab836; stroke:none;" d="M76 55C50.9583 42.2054 11.41 55.8859 16.3009 89C17.8858 99.7306 25.6605 103.524 32 111C13.7846 114.297 11.1547 136.934 28 144L28 145C11.595 151.877 6.13876 172.796 24 182.175C41.5879 191.41 69.0204 188.319 86 179.204C98.0475 172.737 105.72 158.103 98.5826 145C89.8344 128.94 66.4252 130.54 51 128.715C47.1196 128.255 34.3531 128.291 35.037 122C35.8486 114.536 51.1113 117.105 56 116.985C69.1568 116.662 82.817 109.638 89.4676 98C95.5732 87.3153 95.0033 67.4736 83 61L91 48C95.8664 58.4888 111.17 55.1687 109.427 43C108.177 34.2798 97.986 32.3515 91 35.3673C82.8608 38.8809 78.7103 47.0404 76 55z"/>
<path style="fill:#6dc6c8; stroke:none;" d="M102.667 34.3333L103.333 34.6667L102.667 34.3333z"/>
<path style="fill:#f4dfe5; stroke:none;" d="M104 34L104 35L109 40L110 40L104 34M279 34L280 35L279 34z"/>
<path style="fill:#6dc6c8; stroke:none;" d="M90 35L91 36L90 35M105 35L106 36L105 35z"/>
<path style="fill:#f4dfe5; stroke:none;" d="M246 35L246 39L247 39L246 35M280 35L281 36L280 35M87 36L88 37L87 36z"/>
<path style="fill:#6dc6c8; stroke:none;" d="M88 36L89 37L88 36M106 36L107 37L106 36z"/>
<path style="fill:#f4dfe5; stroke:none;" d="M281 36L282 37L281 36M86 37L87 38L86 37z"/>
<path style="fill:#6dc6c8; stroke:none;" d="M107 37L108 38L107 37z"/>
<path style="fill:#f4dfe5; stroke:none;" d="M85 38L86 39L85 38z"/>
<path style="fill:#6dc6c8; stroke:none;" d="M108 38L109 39L108 38z"/>
<path style="fill:#f4dfe5; stroke:none;" d="M282 38L283 43L284 43L282 38M84 39L85 40L84 39M83 40L84 41L83 40z"/>
<path style="fill:#6dc6c8; stroke:none;" d="M109 40L109 43L110 43L109 40z"/>
<path style="fill:#f4dfe5; stroke:none;" d="M82 41L83 42L82 41M110 41L110 48L111 48L110 41M245 41L245 74L246 74L245 41M81 42L80 45L81 45L81 42z"/>
<path style="fill:#6dc6c8; stroke:none;" d="M81 43L82 44L81 43z"/>
<path style="fill:#f4dfe5; stroke:none;" d="M284 43L284 51L285 51L284 43M79 45L74 54C77.3312 52.1093 79.6536 48.9275 79 45z"/>
<path style="fill:#6dc6c8; stroke:none;" d="M109 46L109 49L110 49L109 46z"/>
<path style="fill:#f4dfe5; stroke:none;" d="M52 48L52 49L57 49L52 48z"/>
<path style="fill:#6dc6c8; stroke:none;" d="M90 48L92 50L90 48z"/>
<path style="fill:#f4dfe5; stroke:none;" d="M145 49L145 50L157 49L145 49M327 49L327 50L348 50L327 49M444 50L444 51L458 50L444 50M511 59C524.226 52.825 533.103 48.1932 548 51C538.563 44.5157 517.38 49.9097 511 59M580 49L580 50L596 50L580 49M46 49L46 50L51 50L46 49z"/>
<path style="fill:#6dc6c8; stroke:none;" d="M51 49L51 50L59 50L51 49z"/>
<path style="fill:#f4dfe5; stroke:none;" d="M59 49L59 50L63 50L59 49z"/>
<path style="fill:#6dc6c8; stroke:none;" d="M88 49L87 51L88 49z"/>
<path style="fill:#f4dfe5; stroke:none;" d="M89 49L93 53L89 49M109 49L106 54L109 49z"/>
<path style="fill:#6dc6c8; stroke:none;" d="M150 49L150 50L158 50L150 49z"/>
<path style="fill:#f4dfe5; stroke:none;" d="M158 49L158 50L163 50L158 49z"/>
<path style="fill:#f55422; stroke:none;" d="M348 133L348 140L381 140L381 127L370 127C370 107.198 378.137 73.9925 362.895 58.0432C348.786 43.2793 302.059 46.1968 301.718 72C301.595 81.2377 311.87 88.4888 319.775 81.5664C325.323 76.7088 320.713 69.9381 324.502 65.419C333.684 54.4693 345.498 67.5501 346.711 77C347.161 80.5116 347.34 84.6714 343.852 86.6821C340.29 88.7351 334.979 88.1977 331 89.0039C320.992 91.0316 310.086 95.0007 303.329 103.015C293.432 114.753 296.842 137.237 313 141.482C326.686 145.078 336.297 138.796 348 133z"/>
<path style="fill:#f4dfe5; stroke:none;" d="M412 52L412 53C426.409 48.8905 423.502 53.1674 427 65L428 65L439 53L427 63C427 50.5238 424.591 46.8703 412 52z"/>
<path style="fill:#f55422; stroke:none;" d="M428 65L427 65C426.162 61.4786 427.341 53.3364 424.397 51.0285C420.35 47.8571 413.005 52.7635 409 53.9576C398.496 57.0888 386.477 53.6965 391 69C393.925 68.4573 398.915 66.8884 401.227 69.6034C403.511 72.2859 402 79.6513 402 83C402 94.421 405.117 111.303 400.852 121.995C399.165 126.225 395.434 126.53 393.028 129.723C391.13 132.241 392 137.03 392 140L437 140L437 127L426 127C426.002 109.544 420.778 70.6854 444 66C446.342 77.5967 464.399 79.9985 466.772 67C471.599 40.5537 435.981 49.6257 428 65z"/>
<path style="fill:#f4dfe5; stroke:none;" d="M503 49L503 50L510 52C510.59 48.4198 505.655 49.0108 503 49z"/>
<path style="fill:#f55422; stroke:none;" d="M511 59C510.855 43.0351 486.098 55.5235 475 56L475 69L487 68C486.871 83.5771 489.721 106.13 485.427 120.999C484.063 125.725 480.463 127.834 476 129L476 140L521 140L521 127L510 127C514.85 110.591 505.594 89.8878 511.603 74.0147C516.725 60.4875 535.362 64.603 538.316 77C540.968 88.1267 541.607 109.988 538.427 120.999C537.142 125.452 533.415 126.304 531.028 129.684C529.17 132.313 530 136.949 530 140L575 140L575 127L563 127C564.63 114.103 564.005 100.996 564 88C563.998 83.4612 561.861 76.3922 563.607 72.2099C568.399 60.7335 586.161 65.7003 589.853 75C594.441 86.5576 594.413 110.199 590.606 121.995C588.013 130.028 583 130.241 583 140L627 140L627 127L616 127C616 107.424 620.858 80.0543 612.084 62C603.016 43.3414 571.561 47.0476 560 61C545.386 45.2672 528.032 47.7673 511 59z"/>
<path style="fill:#f4dfe5; stroke:none;" d="M42 50L42 51L45 51L42 50z"/>
<path style="fill:#6dc6c8; stroke:none;" d="M45 50L46 51L45 50M64 50L65 51L64 50z"/>
<path style="fill:#f4dfe5; stroke:none;" d="M65.6667 50.3333L66.3333 50.6667L65.6667 50.3333M88 50L89 51L88 50z"/>
<path style="fill:#6dc6c8; stroke:none;" d="M108 50L109 51L108 50z"/>
<path style="fill:#f4dfe5; stroke:none;" d="M141 50L141 51L144 51L141 50z"/>
<path style="fill:#6dc6c8; stroke:none;" d="M144 50L145 51L144 50z"/>
<path style="fill:#4ab836; stroke:none;" d="M145 50.4645C114.409 55.9701 100.198 96.1895 115.475 122C125.377 138.728 145.49 144.873 164 141.535C194.159 136.098 205.73 95.8824 192.096 71C182.9 54.2187 163.357 47.1608 145 50.4645z"/>
<path style="fill:#6dc6c8; stroke:none;" d="M163.667 50.3333L164.333 50.6667L163.667 50.3333z"/>
<path style="fill:#f4dfe5; stroke:none;" d="M165.667 50.3333L166.333 50.6667L165.667 50.3333M323 50L323 51L326 51L323 50M349.667 50.3333L350.333 50.6667L349.667 50.3333M459 50L460 51L459 50M500.667 50.3333L501.333 50.6667L500.667 50.3333M577.667 50.3333L578.333 50.6667L577.667 50.3333M597.667 50.3333L598.333 50.6667L597.667 50.3333M39.6667 51.3333L40.3333 51.6667L39.6667 51.3333z"/>
<path style="fill:#6dc6c8; stroke:none;" d="M41 51L42 52L41 51M68 51L69 52L68 51z"/>
<path style="fill:#f4dfe5; stroke:none;" d="M69.6667 51.3333L70.3333 51.6667L69.6667 51.3333M87 51L86 54L87 51z"/>
<path style="fill:#6dc6c8; stroke:none;" d="M92 51L93 52L92 51M107 51L108 52L107 51z"/>
<path style="fill:#f4dfe5; stroke:none;" d="M138.667 51.3333L139.333 51.6667L138.667 51.3333z"/>
<path style="fill:#6dc6c8; stroke:none;" d="M140 51L141 52L140 51M168 51L169 52L168 51z"/>
<path style="fill:#f4dfe5; stroke:none;" d="M169 51L170 52L169 51M287 51L287 52L295 52L287 51M320.667 51.3333L321.333 51.6667L320.667 51.3333M352.667 51.3333L353.333 51.6667L352.667 51.3333M442 51L443 52L442 51M461 51L462 52L461 51M498.667 51.3333L499.333 51.6667L498.667 51.3333M549 51L550 52L549 51M574.667 51.3333L575.333 51.6667L574.667 51.3333M600.667 51.3333L601.333 51.6667L600.667 51.3333M37.6667 52.3333L38.3333 52.6667L37.6667 52.3333z"/>
<path style="fill:#6dc6c8; stroke:none;" d="M71 52L72 53L71 52z"/>
<path style="fill:#f4dfe5; stroke:none;" d="M72 52L73 53L72 52z"/>
<path style="fill:#6dc6c8; stroke:none;" d="M86 52L87 53L86 52M106 52L107 53L106 52z"/>
<path style="fill:#f4dfe5; stroke:none;" d="M135.667 52.3333L136.333 52.6667L135.667 52.3333z"/>
<path style="fill:#6dc6c8; stroke:none;" d="M137 52L138 53L137 52M170.667 52.3333L171.333 52.6667L170.667 52.3333z"/>
<path style="fill:#f4dfe5; stroke:none;" d="M172 52L173 53L172 52M317.667 52.3333L318.333 52.6667L317.667 52.3333M355.667 52.3333L356.333 52.6667L355.667 52.3333M440 52L441 53L440 52M463 52L464 53L463 52M496.667 52.3333L497.333 52.6667L496.667 52.3333M551 52L552 53L551 52M571.667 52.3333L572.333 52.6667L571.667 52.3333M603 52L604 53L603 52M35 53L36 54L35 53z"/>
<path style="fill:#6dc6c8; stroke:none;" d="M36 53L37 54L36 53M73 53L74 54L73 53M76 53L77 54L76 53M85 53L84 57L85 57L85 53z"/>
<path style="fill:#f4dfe5; stroke:none;" d="M93 53L93 54L105 55L105 54L93 53z"/>
<path style="fill:#6dc6c8; stroke:none;" d="M94 53L95 54L94 53M105 53L106 54L105 53z"/>
<path style="fill:#f4dfe5; stroke:none;" d="M130 55L130 56L135 54L130 55z"/>
<path style="fill:#6dc6c8; stroke:none;" d="M173 53L174 54L173 53z"/>
<path style="fill:#f4dfe5; stroke:none;" d="M174 53L175 54L174 53M315.667 53.3333L316.333 53.6667L315.667 53.3333M357 53L358 54L357 53M409.667 53.3333L410.333 53.6667L409.667 53.3333M464 53L465 54L464 53M492 53L492 54L495 54L492 53M552.667 53.3333L553.333 53.6667L552.667 53.3333M569.667 53.3333L570.333 53.6667L569.667 53.3333M604.667 53.3333L605.333 53.6667L604.667 53.3333M33 54L34 55L33 54z"/>
<path style="fill:#6dc6c8; stroke:none;" d="M34 54L35 55L34 54M74.6667 54.3333L75.3333 54.6667L74.6667 54.3333M96 54L97 55L96 54M103 54L104 55L103 54M133 54L134 55L133 54M175 54L176 55L175 54z"/>
<path style="fill:#f4dfe5; stroke:none;" d="M176 54L177 55L176 54M313 54L314 55L313 54M359 54L360 55L359 54M404 54L404 55L408 55L404 54M465 54L466 55L465 54M486 54L486 55L490 55L486 54M554 54L555 55L554 54M567.667 54.3333L568.333 54.6667L567.667 54.3333M606 54L607 55L606 54M30 57L33 56L30 57M85.3333 55.6667L85.6667 56.3333L85.3333 55.6667z"/>
<path style="fill:#6dc6c8; stroke:none;" d="M131 55L132 56L131 55M177 55L179 57L177 55z"/>
<path style="fill:#f4dfe5; stroke:none;" d="M178 55L179 56L178 55M311.667 55.3333L312.333 55.6667L311.667 55.3333M360 55L361 56L360 55M391 69C388.545 58.6868 392.122 56.0011 402 56C393.065 52.2507 382.472 61.5479 391 69M474 55L474 69L475 69L475 56L481 56L474 55M555 55L556 56L555 55M565.667 55.3333L566.333 55.6667L565.667 55.3333M607 55L608 56L607 55z"/>
<path style="fill:#6dc6c8; stroke:none;" d="M31 56L32 57L31 56z"/>
<path style="fill:#f4dfe5; stroke:none;" d="M127 58L130 57L127 58M179 56L179 57L184 60L179 56M310 56L311 57L310 56M361 56L362 57L361 56M466 56L467 57L466 56M556.333 56.6667L556.667 57.3333L556.333 56.6667M564 56L565 57L564 56M608 56L609 57L608 56M26 60L30 58L26 60M84 57L84 61L85 61L84 57z"/>
<path style="fill:#6dc6c8; stroke:none;" d="M128 57L129 58L128 57M180 57L181 58L180 57z"/>
<path style="fill:#f4dfe5; stroke:none;" d="M308.667 57.3333L309.333 57.6667L308.667 57.3333M362 57L363 58L362 57M562.667 57.3333L563.333 57.6667L562.667 57.3333M609 57L610 58L609 57z"/>
<path style="fill:#6dc6c8; stroke:none;" d="M28 58L29 59L28 58M83 58L83 61L84 61L83 58z"/>
<path style="fill:#f4dfe5; stroke:none;" d="M126 58L127 59L126 58z"/>
<path style="fill:#6dc6c8; stroke:none;" d="M181 58L182 59L181 58z"/>
<path style="fill:#f4dfe5; stroke:none;" d="M307 58L308 59L307 58M363 58L364 59L363 58M467 58L467 68L468 68L467 58M557 58L558 59L557 58M561 58L562 59L561 58M610 58L611 59L610 58z"/>
<path style="fill:#6dc6c8; stroke:none;" d="M27 59L28 60L27 59z"/>
<path style="fill:#f4dfe5; stroke:none;" d="M125 59L126 60L125 59z"/>
<path style="fill:#6dc6c8; stroke:none;" d="M182 59L183 60L182 59z"/>
<path style="fill:#f4dfe5; stroke:none;" d="M263 59L263 60L276 60L276 102L277 102L277 59L263 59M306 59L307 60L306 59M364 59L365 60L364 59M558 59L559 61L560 61L561 59L558 59M25 60L26 61L25 60z"/>
<path style="fill:#6dc6c8; stroke:none;" d="M53 60L53 61L56 61L53 60z"/>
<path style="fill:#f4dfe5; stroke:none;" d="M124 60L125 61L124 60M184 60L185 61L184 60M262 60L263 73L247 73L247 74L264 74L262 60M305 60L306 61L305 60M365 60L366 61L365 60M611 60L612 61L611 60M24 61L25 62L24 61z"/>
<path style="fill:#6dc6c8; stroke:none;" d="M50 61L51 62L50 61z"/>
<path style="fill:#f4dfe5; stroke:none;" d="M51 61L51 62L54 62L51 61z"/>
<path style="fill:#010101; stroke:none;" d="M54 61.7693C34.9496 62.6176 36.3487 105.323 55 104.862C73.9881 104.393 72.603 60.9409 54 61.7693z"/>
<path style="fill:#f4dfe5; stroke:none;" d="M55 61L55 62L58 62L55 61z"/>
<path style="fill:#6dc6c8; stroke:none;" d="M58 61L59 62L58 61z"/>
<path style="fill:#f4dfe5; stroke:none;" d="M85 61L86 62L85 61M123 61L124 62L123 61z"/>
<path style="fill:#6dc6c8; stroke:none;" d="M150 61L150 62L156 62L150 61z"/>
<path style="fill:#f4dfe5; stroke:none;" d="M185 61L186 62L185 61M304.333 61.6667L304.667 62.3333L304.333 61.6667M612.333 61.6667L612.667 62.3333L612.333 61.6667M23 62L21 66L22 66L23 62z"/>
<path style="fill:#6dc6c8; stroke:none;" d="M48 62L49 63L48 62z"/>
<path style="fill:#f4dfe5; stroke:none;" d="M49 62L50 63L49 62M59 62L60 63L59 62z"/>
<path style="fill:#6dc6c8; stroke:none;" d="M60 62L61 63L60 62z"/>
<path style="fill:#f4dfe5; stroke:none;" d="M86 62L90 68L91 68L86 62M122 62L123 63L122 62z"/>
<path style="fill:#6dc6c8; stroke:none;" d="M147 62L148 63L147 62z"/>
<path style="fill:#f4dfe5; stroke:none;" d="M148.667 62.3333L149.333 62.6667L148.667 62.3333z"/>
<path style="fill:#010101; stroke:none;" d="M150 62.534C130.715 67.1286 134.668 103.552 139.71 117C142.469 124.359 149.322 131.81 158 129.424C175.922 124.495 172.056 87.8753 167.453 75C164.699 67.2969 159.008 60.3878 150 62.534z"/>
<path style="fill:#f4dfe5; stroke:none;" d="M157.667 62.3333L158.333 62.6667L157.667 62.3333M186 62L187 63L186 62M329 62L329 63L333 63L329 62M336 62L336 63L339 63L336 62M366 62L367 63L366 62z"/>
<path style="fill:#6dc6c8; stroke:none;" d="M23 63L24 64L23 63M46 63L44 66L46 63z"/>
<path style="fill:#f4dfe5; stroke:none;" d="M47 63L48 64L47 63M61 63L62 64L61 63z"/>
<path style="fill:#6dc6c8; stroke:none;" d="M86 63L87 64L86 63z"/>
<path style="fill:#f4dfe5; stroke:none;" d="M121 63L122 64L121 63z"/>
<path style="fill:#6dc6c8; stroke:none;" d="M145 63L146 64L145 63z"/>
<path style="fill:#f4dfe5; stroke:none;" d="M146 63L147 64L146 63M159.667 63.3333L160.333 63.6667L159.667 63.3333M187 63L191 67L187 63M303 63L304 64L303 63M326.667 63.3333L327.333 63.6667L326.667 63.3333M340 63L341 64L340 63M367.333 63.6667L367.667 64.3333L367.333 63.6667M46 64L47 65L46 64M62 64L63 65L62 64z"/>
<path style="fill:#6dc6c8; stroke:none;" d="M87 64L88 65L87 64z"/>
<path style="fill:#f4dfe5; stroke:none;" d="M120 64L121 65L120 64z"/>
<path style="fill:#6dc6c8; stroke:none;" d="M144 64L145 65L144 64z"/>
<path style="fill:#f4dfe5; stroke:none;" d="M161 64L162 65L161 64z"/>
<path style="fill:#6dc6c8; stroke:none;" d="M187 64L188 65L187 64z"/>
<path style="fill:#f4dfe5; stroke:none;" d="M302.333 64.6667L302.667 65.3333L302.333 64.6667M324.667 64.3333L325.333 64.6667L324.667 64.3333M341 64L342 65L341 64M613.333 64.6667L613.667 65.3333L613.333 64.6667M45 65L46 66L45 65M63 65C67.4419 77.4171 67.9066 85.0318 66 98L67 98C70.2024 87.8978 71.1257 73.0475 63 65z"/>
<path style="fill:#6dc6c8; stroke:none;" d="M88 65L89 66L88 65z"/>
<path style="fill:#f4dfe5; stroke:none;" d="M119 65C107.028 80.7018 106.174 99.781 112 118L113 118C110.482 105.834 108.143 95.389 111.489 83C113.107 77.0088 118.822 70.9804 119 65z"/>
<path style="fill:#6dc6c8; stroke:none;" d="M143 65L144 66L143 65z"/>
<path style="fill:#f4dfe5; stroke:none;" d="M162 65L163 66L162 65z"/>
<path style="fill:#6dc6c8; stroke:none;" d="M188 65L189 66L188 65z"/>
<path style="fill:#f4dfe5; stroke:none;" d="M323 65L324 66L323 65M342 65L343 66L342 65M368 65L368 68L369 68L368 65M523 65L523 66L528 66L523 65M575 65L575 66L583 67L575 65M20 66L21 67L20 66M44 66L43 69L44 66z"/>
<path style="fill:#6dc6c8; stroke:none;" d="M119 66L120 67L119 66M142 66L143 67L142 66z"/>
<path style="fill:#f4dfe5; stroke:none;" d="M163 66L164 67L163 66z"/>
<path style="fill:#6dc6c8; stroke:none;" d="M189 66L190 67L189 66z"/>
<path style="fill:#f4dfe5; stroke:none;" d="M301 66L301 78L302 78L301 66M322.333 66.6667L322.667 67.3333L322.333 66.6667M343 66L344 67L343 66M440 66L440 67L443 69C443.951 66.4934 442.348 66.2942 440 66M519 66L519 67L523 67L519 66M529 66L529 67L532 67L529 66M571 66L571 67L575 67L571 66M614 66L614 69L615 69L614 66M19.3333 67.6667L19.6667 68.3333L19.3333 67.6667z"/>
<path style="fill:#6dc6c8; stroke:none;" d="M43 67L44 68L43 67M65 67L66 68L65 67M89 67L90 68L89 67M141 67L140 69L141 67z"/>
<path style="fill:#f4dfe5; stroke:none;" d="M164 67C170.028 87.9317 171.833 102.622 166 124L167 124C174.36 109.976 176.087 79.0645 164 67z"/>
<path style="fill:#6dc6c8; stroke:none;" d="M190 67L192 70L190 67z"/>
<path style="fill:#f4dfe5; stroke:none;" d="M344.333 67.6667L344.667 68.3333L344.333 67.6667M438.667 67.3333L439.333 67.6667L438.667 67.3333M517.667 67.3333L518.333 67.6667L517.667 67.3333M532 67L533 68L532 67M568.667 67.3333L569.333 67.6667L568.667 67.3333M583.667 67.3333L584.333 67.6667L583.667 67.3333z"/>
<path style="fill:#6dc6c8; stroke:none;" d="M42 68L41 72L42 72L42 68M90 68L91 72L92 72L90 68z"/>
<path style="fill:#f4dfe5; stroke:none;" d="M141 68L142 69L141 68M191 68L192 69L191 68M323 68L323 71L324 71L323 68M369 68L369 71L370 71L369 68M391 69L391 70L402 69L391 69M437 68L438 69L437 68M475 69L475 70L486 69L486 76L487 76L487 68L475 69M516 68L517 69L516 68M533 68L535 70L535 68L533 68M567 68L568 69L567 68M585 68L586 69L585 68M18 69C13.6168 78.9032 13.6131 90.5232 19 100L20 100L16.0903 81L18 69z"/>
<path style="fill:#6dc6c8; stroke:none;" d="M66 69L67 70L66 69z"/>
<path style="fill:#f4dfe5; stroke:none;" d="M91 69L92 70L91 69z"/>
<path style="fill:#6dc6c8; stroke:none;" d="M117 69L118 70L117 69z"/>
<path style="fill:#f4dfe5; stroke:none;" d="M140 69L138 75L139 75L140 69M192 69L195 77L196 77L192 69M402 69L401 121L402 121L402 85L402 69M436 69L437 70L436 69M444.333 69.6667L444.667 70.3333L444.333 69.6667M466 69L467 70L466 69M514 69L515 70L514 69M565 69L566 70L565 69M586 69L587 70L586 69M42 70L43 71L42 70z"/>
<path style="fill:#6dc6c8; stroke:none;" d="M139 70L140 71L139 70z"/>
<path style="fill:#f4dfe5; stroke:none;" d="M345 70L345 74L346 74L345 70M435 70L436 71L435 70M513 70L514 71L513 70M535 70L536 71L535 70M563.667 70.3333L564.333 70.6667L563.667 70.3333M587 70L588 71L587 70M615 70L615 75L616 75L615 70M92.3333 71.6667L92.6667 72.3333L92.3333 71.6667z"/>
<path style="fill:#6dc6c8; stroke:none;" d="M138.333 71.6667L138.667 72.3333L138.333 71.6667M192 71L193 72L192 71z"/>
<path style="fill:#f4dfe5; stroke:none;" d="M370 71L370 78L371 78L370 71M434 71L435 72L434 71M445 71L448 74L445 71M465 71L466 72L465 71M512 71L513 72L512 71M536.333 71.6667L536.667 72.3333L536.333 71.6667M588.333 71.6667L588.667 72.3333L588.333 71.6667M41.3333 72.6667L41.6667 73.3333L41.3333 72.6667M433 72L434 73L433 72M464 72L465 73L464 72M511 72L511 121L512 121C512 107.212 516.309 84.652 511 72z"/>
<path style="fill:#6dc6c8; stroke:none;" d="M17 73L18 74L17 73M40 73L39 87L40 87L40 73M92.3333 73.6667L92.6667 74.3333L92.3333 73.6667M193 73L194 74L193 73z"/>
<path style="fill:#f4dfe5; stroke:none;" d="M432 73L433 74L432 73M463 73L464 74L463 73M537 73L537 76L538 76L537 73M563 73L563 79L564 79L563 73M589 73L589 76L590 76L589 73M93.3333 74.6667L93.6667 75.3333L93.3333 74.6667z"/>
<path style="fill:#6dc6c8; stroke:none;" d="M114 74L115 75L114 74M137.333 74.6667L137.667 75.3333L137.333 74.6667M168 74L169 75L168 74z"/>
<path style="fill:#f4dfe5; stroke:none;" d="M431 74L432 75L431 74M448 74L449 75L448 74M462 74L463 75L462 74z"/>
<path style="fill:#6dc6c8; stroke:none;" d="M194.333 75.6667L194.667 76.3333L194.333 75.6667z"/>
<path style="fill:#f4dfe5; stroke:none;" d="M323 75L323 78L324 78L323 75M346 75L346 86L347 86L346 75M450.667 75.3333L451.333 75.6667L450.667 75.3333M459.667 75.3333L460.333 75.6667L459.667 75.3333M616 75L616 127L617 127L617 92L616 75M40 76L40 88L41 88L40 76z"/>
<path style="fill:#6dc6c8; stroke:none;" d="M93 76L93 89L94 89L93 76z"/>
<path style="fill:#f4dfe5; stroke:none;" d="M137 76L137 79L138 79L137 76M430 76L431 77L430 76M454 76L454 77L457 77L454 76M485 76L485 122L486 122C486 108.997 490.01 87.9389 485 76M590 76L590 81L591 81L590 76z"/>
<path style="fill:#6dc6c8; stroke:none;" d="M16 77L17 78L16 77z"/>
<path style="fill:#f4dfe5; stroke:none;" d="M94 77L94 88L95 88L94 77z"/>
<path style="fill:#6dc6c8; stroke:none;" d="M136 77L136 81L137 81L136 77M195 77L195 80L196 80L195 77z"/>
<path style="fill:#f4dfe5; stroke:none;" d="M429 77L430 78L429 77M538 77L538 122L539 122C539 109.258 542.91 88.701 538 77M196 78L196 81L197 81L196 78M302.333 78.6667L302.667 79.3333L302.333 78.6667M322.333 78.6667L322.667 79.3333L322.333 78.6667z"/>
<path style="fill:#6dc6c8; stroke:none;" d="M112 79L113 80L112 79z"/>
<path style="fill:#f4dfe5; stroke:none;" d="M428.333 79.6667L428.667 80.3333L428.333 79.6667M303 80L304 81L303 80M321 80L322 81L321 80M136 81L136 85L137 85L136 81z"/>
<path style="fill:#6dc6c8; stroke:none;" d="M196 81L196 84L197 84L196 81z"/>
<path style="fill:#f4dfe5; stroke:none;" d="M304 81L305 82L304 81M320 81L321 82L320 81M427.333 81.6667L427.667 82.3333L427.333 81.6667M564 81L564 120L565 120C565 108.828 568.311 91.2738 564 81z"/>
<path style="fill:#6dc6c8; stroke:none;" d="M69 82L69 89L70 89L69 82M111 82L112 83L111 82M135 82L135 87L136 87L135 82z"/>
<path style="fill:#f4dfe5; stroke:none;" d="M197 82L197 86L198 86L197 82M305 82L306 83L305 82M319 82L320 83L319 82M591 82L591 118L592 118C592 107.613 595.011 91.5595 591 82M306.667 83.3333L307.333 83.6667L306.667 83.3333M317.667 83.3333L318.333 83.6667L317.667 83.3333M309 84L309 85L317 85L309 84z"/>
<path style="fill:#6dc6c8; stroke:none;" d="M197 86L197 94L198 94L197 86z"/>
<path style="fill:#f4dfe5; stroke:none;" d="M246 86L246 87L253 87L246 86M343 86L343 87L346 87L343 86z"/>
<path style="fill:#6dc6c8; stroke:none;" d="M110 87L111 88L110 87z"/>
<path style="fill:#f4dfe5; stroke:none;" d="M135 87L135 100L136 100L135 87M245 87L245 127L260 127L260 140L261 140L261 126L246 126C246 114.828 249.311 97.274 245 87M256.667 87.3333L257.333 87.6667L256.667 87.3333M334 87L334 88L343 88L334 87z"/>
<path style="fill:#6dc6c8; stroke:none;" d="M40 88L40 92L41 92L40 88M171 88L172 89L171 88z"/>
<path style="fill:#f4dfe5; stroke:none;" d="M198 88L198 102L199 102L198 88M259 88L260 89L259 88M330 88L330 89L334 89L330 88M93 89L93 92L94 92L93 89M260 89L261 90L260 89M327.667 89.3333L328.333 89.6667L327.667 89.3333z"/>
<path style="fill:#6dc6c8; stroke:none;" d="M16 90L17 91L16 90M92 90L91 95L92 95L92 90z"/>
<path style="fill:#f4dfe5; stroke:none;" d="M261 90L262 91L261 90M323.667 90.3333L324.333 90.6667L323.667 90.3333M41.3333 91.6667L41.6667 92.3333L41.3333 91.6667M262 91L263 95L264 95L262 91M320.667 91.3333L321.333 91.6667L320.667 91.3333M317 92L317 93L320 93L317 92z"/>
<path style="fill:#6dc6c8; stroke:none;" d="M41.3333 93.6667L41.6667 94.3333L41.3333 93.6667M68 93L69 94L68 93z"/>
<path style="fill:#f4dfe5; stroke:none;" d="M92.3333 93.6667L92.6667 94.3333L92.3333 93.6667M315.667 93.3333L316.333 93.6667L315.667 93.3333M42 94L49 104L42 94M313.667 94.3333L314.333 94.6667L313.667 94.3333M91 95L89 100L90 100L91 95z"/>
<path style="fill:#6dc6c8; stroke:none;" d="M109 95L109 101L110 101L109 95M197 95L197 103L198 103L197 95z"/>
<path style="fill:#f4dfe5; stroke:none;" d="M264 95L264 102L265 102L264 95M311.667 95.3333L312.333 95.6667L311.667 95.3333z"/>
<path style="fill:#6dc6c8; stroke:none;" d="M18 96L19 97L18 96M42 96L43 97L42 96M90 96L91 97L90 96z"/>
<path style="fill:#f4dfe5; stroke:none;" d="M310 96L311 97L310 96M308.667 97.3333L309.333 97.6667L308.667 97.3333z"/>
<path style="fill:#6dc6c8; stroke:none;" d="M19 98L20 99L19 98M43 98L44 99L43 98z"/>
<path style="fill:#f4dfe5; stroke:none;" d="M65 98L64 101L65 98z"/>
<path style="fill:#6dc6c8; stroke:none;" d="M89 98L90 99L89 98z"/>
<path style="fill:#f4dfe5; stroke:none;" d="M307 98L308 99L307 98z"/>
<path style="fill:#6dc6c8; stroke:none;" d="M88 99L80 109L88 99z"/>
<path style="fill:#f4dfe5; stroke:none;" d="M306 99L307 100L306 99M345 99C348.221 112.529 345.45 123.736 330 125L330 126C343.201 125.424 354.384 111.386 345 99M20 100L26 106L26 105L20 100z"/>
<path style="fill:#6dc6c8; stroke:none;" d="M44 100L45 101L44 100M135 100L135 105L136 105L135 100z"/>
<path style="fill:#f4dfe5; stroke:none;" d="M305 100L306 101L305 100M340 100L340 101L343 101L340 100z"/>
<path style="fill:#010101; stroke:none;" d="M346 100C341.915 100.528 337.811 101.252 334 102.88C331.335 104.017 328.584 105.442 326.533 107.529C312.922 121.383 339.511 132.553 345.397 117.907C347.396 112.931 346 105.31 346 100z"/>
<path style="fill:#6dc6c8; stroke:none;" d="M45 101L46 102L45 101z"/>
<path style="fill:#f4dfe5; stroke:none;" d="M63 101L64 102L63 101M88 101L89 102L88 101M304 101L305 102L304 101M336.667 101.333L337.333 101.667L336.667 101.333z"/>
<path style="fill:#6dc6c8; stroke:none;" d="M22 102L23 103L22 102M46 102L47 103L46 102z"/>
<path style="fill:#f4dfe5; stroke:none;" d="M62 102L63 103L62 102M87 102L88 103L87 102M136 102L136 107L137 107L136 102M267 102L267 103L275 103L267 102M303 102L304 103L303 102M333.667 102.333L334.333 102.667L333.667 102.333z"/>
<path style="fill:#6dc6c8; stroke:none;" d="M23 103L24 104L23 103M47 103L48 104L47 103z"/>
<path style="fill:#f4dfe5; stroke:none;" d="M61 103L62 104L61 103M86 103L87 104L86 103M197 103L197 108L198 108L197 103M302 103L303 104L302 103M331.667 103.333L332.333 103.667L331.667 103.333z"/>
<path style="fill:#6dc6c8; stroke:none;" d="M24 104L25 105L24 104M49 104L50 105L49 104z"/>
<path style="fill:#f4dfe5; stroke:none;" d="M50 104L51 105L50 104M58.6667 104.333L59.3333 104.667L58.6667 104.333z"/>
<path style="fill:#6dc6c8; stroke:none;" d="M60 104L61 105L60 104z"/>
<path style="fill:#f4dfe5; stroke:none;" d="M85 104L86 105L85 104M301 104L300 107L301 104M329.667 104.333L330.333 104.667L329.667 104.333z"/>
<path style="fill:#6dc6c8; stroke:none;" d="M51.6667 105.333L52.3333 105.667L51.6667 105.333z"/>
<path style="fill:#f4dfe5; stroke:none;" d="M53 105L53 106L57 106L53 105z"/>
<path style="fill:#6dc6c8; stroke:none;" d="M57.6667 105.333L58.3333 105.667L57.6667 105.333z"/>
<path style="fill:#f4dfe5; stroke:none;" d="M84 105L85 106L84 105M328 105L329 106L328 105M26 106L27 107L26 106M83 106L84 107L83 106z"/>
<path style="fill:#6dc6c8; stroke:none;" d="M196 106L196 109L197 109L196 106z"/>
<path style="fill:#f4dfe5; stroke:none;" d="M327 106L328 107L327 106M27 107L27 108L32 111L27 107z"/>
<path style="fill:#6dc6c8; stroke:none;" d="M28 107L29 108L28 107z"/>
<path style="fill:#f4dfe5; stroke:none;" d="M82 107L83 108L82 107z"/>
<path style="fill:#6dc6c8; stroke:none;" d="M110.333 107.667L110.667 108.333L110.333 107.667M136 107L136 111L137 111L136 107z"/>
<path style="fill:#f4dfe5; stroke:none;" d="M299.333 107.667L299.667 108.333L299.333 107.667z"/>
<path style="fill:#6dc6c8; stroke:none;" d="M30 108L31 109L30 108z"/>
<path style="fill:#f4dfe5; stroke:none;" d="M81 108L82 109L81 108z"/>
<path style="fill:#6dc6c8; stroke:none;" d="M171 108L172 109L171 108z"/>
<path style="fill:#f4dfe5; stroke:none;" d="M325 108L326 109L325 108z"/>
<path style="fill:#6dc6c8; stroke:none;" d="M78 109L77 111L78 109z"/>
<path style="fill:#f4dfe5; stroke:none;" d="M79 109L80 110L79 109M137 109L137 112L138 112L137 109M196 109L194 117L195 117L196 109M298 109L298 112L299 112L298 109M324 109L325 110L324 109M78 110L79 111L78 110z"/>
<path style="fill:#6dc6c8; stroke:none;" d="M195.333 110.667L195.667 111.333L195.333 110.667z"/>
<path style="fill:#f4dfe5; stroke:none;" d="M27.6667 111.333L28.3333 111.667L27.6667 111.333z"/>
<path style="fill:#6dc6c8; stroke:none;" d="M75 111L74 113L75 111z"/>
<path style="fill:#f4dfe5; stroke:none;" d="M76 111L77 112L76 111M323 111L324 112L323 111M25.6667 112.333L26.3333 112.667L25.6667 112.333M75 112L76 113L75 112z"/>
<path style="fill:#6dc6c8; stroke:none;" d="M137 112L141 123L142 123L137 112z"/>
<path style="fill:#f4dfe5; stroke:none;" d="M297 112L300 133L301 133L297 112M21 116L25 114L21 116z"/>
<path style="fill:#6dc6c8; stroke:none;" d="M71.6667 113.333L72.3333 113.667L71.6667 113.333z"/>
<path style="fill:#f4dfe5; stroke:none;" d="M73 113L74 114L73 113M138.333 113.667L138.667 114.333L138.333 113.667M322 113L322 119L323 119L322 113M370 113L370 127L371 127L370 113z"/>
<path style="fill:#6dc6c8; stroke:none;" d="M69 114L70 115L69 114z"/>
<path style="fill:#f4dfe5; stroke:none;" d="M70 114L71 115L70 114z"/>
<path style="fill:#6dc6c8; stroke:none;" d="M170 114L171 115L170 114M194 114L195 115L194 114M22 115L23 116L22 115M66 115L67 116L66 115z"/>
<path style="fill:#f4dfe5; stroke:none;" d="M67.6667 115.333L68.3333 115.667L67.6667 115.333z"/>
<path style="fill:#6dc6c8; stroke:none;" d="M112 115L113 116L112 115z"/>
<path style="fill:#f4dfe5; stroke:none;" d="M20 116C15.4346 122.419 14.1704 128.315 16 136L17 136L20 116z"/>
<path style="fill:#6dc6c8; stroke:none;" d="M61.6667 116.333L62.3333 116.667L61.6667 116.333z"/>
<path style="fill:#f4dfe5; stroke:none;" d="M63 116L63 117L66 117L63 116M139.333 116.667L139.667 117.333L139.333 116.667z"/>
<path style="fill:#6dc6c8; stroke:none;" d="M193.333 116.667L193.667 117.333L193.333 116.667z"/>
<path style="fill:#f4dfe5; stroke:none;" d="M426 116L426 127L427 127L426 116z"/>
<path style="fill:#6dc6c8; stroke:none;" d="M20 117L21 118L20 117M38 117L39 118L38 117z"/>
<path style="fill:#f4dfe5; stroke:none;" d="M39 117L39 118L62 118L39 117z"/>
<path style="fill:#6dc6c8; stroke:none;" d="M36 118L37 119L36 118z"/>
<path style="fill:#f4dfe5; stroke:none;" d="M37 118L38 119L37 118M113 118L114 122L115 122L113 118M193 118L192 121L193 118z"/>
<path style="fill:#6dc6c8; stroke:none;" d="M35 119L34 122L35 122L35 119z"/>
<path style="fill:#f4dfe5; stroke:none;" d="M140 119L141 120L140 119z"/>
<path style="fill:#6dc6c8; stroke:none;" d="M192 119L193 120L192 119z"/>
<path style="fill:#f4dfe5; stroke:none;" d="M590 119L590 124L591 124L590 119z"/>
<path style="fill:#6dc6c8; stroke:none;" d="M18 120L19 121L18 120z"/>
<path style="fill:#f4dfe5; stroke:none;" d="M35 120L36 121L35 120z"/>
<path style="fill:#6dc6c8; stroke:none;" d="M191 120L188 126L191 120z"/>
<path style="fill:#f4dfe5; stroke:none;" d="M323.333 120.667L323.667 121.333L323.333 120.667M141 121L142 122L141 121M400 121L400 124L401 124L400 121z"/>
<path style="fill:#6dc6c8; stroke:none;" d="M17 122L18 123L17 122z"/>
<path style="fill:#f4dfe5; stroke:none;" d="M34 122L40 127L40 126L34 122M115 122L117 125L115 122M142 122L149 129L149 128L142 122M191 122L192 123L191 122M218.333 122.667L218.667 123.333L218.333 122.667M324 122L325 123L324 122M484 122L484 125L485 125L484 122M537 122L537 125L538 125L537 122z"/>
<path style="fill:#6dc6c8; stroke:none;" d="M34 123L35 124L34 123M116 123L117 124L116 123z"/>
<path style="fill:#f4dfe5; stroke:none;" d="M325.667 123.333L326.333 123.667L325.667 123.333M563 123L565 127L563 123z"/>
<path style="fill:#6dc6c8; stroke:none;" d="M142 124L143 125L142 124z"/>
<path style="fill:#f4dfe5; stroke:none;" d="M165 124L162 128L165 124M190 124L191 125L190 124M217 124L216 126L218 126L217 124M327.667 124.333L328.333 124.667L327.667 124.333M399.333 124.667L399.667 125.333L399.333 124.667M589.333 124.667L589.667 125.333L589.333 124.667z"/>
<path style="fill:#6dc6c8; stroke:none;" d="M16 125L17 126L16 125M35 125L36 126L35 125z"/>
<path style="fill:#f4dfe5; stroke:none;" d="M117 125L120 129L117 125z"/>
<path style="fill:#6dc6c8; stroke:none;" d="M143 125L144 126L143 125z"/>
<path style="fill:#f4dfe5; stroke:none;" d="M189 125L190 126L189 125M483 125L484 126L483 125M536 125L537 126L536 125z"/>
<path style="fill:#6dc6c8; stroke:none;" d="M37 126L38 127L37 126M144 126L145 127L144 126z"/>
<path style="fill:#f4dfe5; stroke:none;" d="M188 126L182 134L188 126M215 126L216 127L215 126M372 126L372 127L381 127L381 140L382 140L382 126L372 126M398 126L399 127L398 126M428 126L428 127L437 127L437 140L438 140L438 126L428 126M482 126L483 127L482 126M510 126L511 127L510 126M513 126L513 127L521 127L513 126M535 126L536 127L535 126M566 126L566 127L575 127L566 126M588 126L589 127L588 126M618 126L618 127L627 127L618 126z"/>
<path style="fill:#6dc6c8; stroke:none;" d="M41.6667 127.333L42.3333 127.667L41.6667 127.333z"/>
<path style="fill:#f4dfe5; stroke:none;" d="M43 127L43 128L47 128L43 127z"/>
<path style="fill:#6dc6c8; stroke:none;" d="M119 127L120 128L119 127M145 127L146 128L145 127M187 127L188 128L187 127z"/>
<path style="fill:#f4dfe5; stroke:none;" d="M212.667 127.333L213.333 127.667L212.667 127.333M396.667 127.333L397.333 127.667L396.667 127.333M480.667 127.333L481.333 127.667L480.667 127.333M521 127L521 140L522 140L521 127M533.667 127.333L534.333 127.667L533.667 127.333M586.667 127.333L587.333 127.667L586.667 127.333M627 127L627 140L628 140L627 127z"/>
<path style="fill:#6dc6c8; stroke:none;" d="M49 128L49 129L53 129L49 128z"/>
<path style="fill:#f4dfe5; stroke:none;" d="M53 128L53 129L61 129L53 128z"/>
<path style="fill:#6dc6c8; stroke:none;" d="M146 128L147 129L146 128z"/>
<path style="fill:#f4dfe5; stroke:none;" d="M161 128L162 129L161 128z"/>
<path style="fill:#6dc6c8; stroke:none;" d="M186 128L187 129L186 128z"/>
<path style="fill:#f4dfe5; stroke:none;" d="M207 128L207 140L208 140L207 128M391 128L391 140L392 140L394 129L391 128M476 128L476 129L479 129L476 128M529 128L529 140L530 140L532 129L529 128M575 128L575 139L576 139L575 128M582 128L582 140L583 140L585 129L582 128z"/>
<path style="fill:#6dc6c8; stroke:none;" d="M63 129L63 130L67 130L63 129z"/>
<path style="fill:#f4dfe5; stroke:none;" d="M67 129L67 130L70 130L67 129M120 129L121 130L120 129z"/>
<path style="fill:#6dc6c8; stroke:none;" d="M148.667 129.333L149.333 129.667L148.667 129.333z"/>
<path style="fill:#f4dfe5; stroke:none;" d="M150.667 129.333L151.333 129.667L150.667 129.333M158.667 129.333L159.333 129.667L158.667 129.333z"/>
<path style="fill:#6dc6c8; stroke:none;" d="M185 129L186 130L185 129z"/>
<path style="fill:#f4dfe5; stroke:none;" d="M475 129L475 140L476 140L475 129z"/>
<path style="fill:#6dc6c8; stroke:none;" d="M70 130L70 131L73 131L70 130z"/>
<path style="fill:#f4dfe5; stroke:none;" d="M73 130L73 131L76 131L73 130M121 130L122 131L121 130z"/>
<path style="fill:#6dc6c8; stroke:none;" d="M151 130L151 131L157 131L151 130M184 130L185 131L184 130M75 131L75 132L78 132L75 131z"/>
<path style="fill:#f4dfe5; stroke:none;" d="M78 131L78 132L81 132L78 131M122 131L127 135L127 134L122 131z"/>
<path style="fill:#6dc6c8; stroke:none;" d="M123 131L124 132L123 131M183 131L184 132L183 131M80.6667 132.333L81.3333 132.667L80.6667 132.333z"/>
<path style="fill:#f4dfe5; stroke:none;" d="M82.6667 132.333L83.3333 132.667L82.6667 132.333z"/>
<path style="fill:#6dc6c8; stroke:none;" d="M124 132L125 133L124 132M182 132L183 133L182 132M83.6667 133.333L84.3333 133.667L83.6667 133.333z"/>
<path style="fill:#f4dfe5; stroke:none;" d="M85 133L85 134L92 137L92 136L85 133z"/>
<path style="fill:#6dc6c8; stroke:none;" d="M181 133L182 134L181 133z"/>
<path style="fill:#f4dfe5; stroke:none;" d="M301 133L303 136L301 133M346 133L347 140L348 140L346 133z"/>
<path style="fill:#6dc6c8; stroke:none;" d="M86 134L87 135L86 134M179 134L177 137L179 134z"/>
<path style="fill:#f4dfe5; stroke:none;" d="M180 134L181 135L180 134M344 134L345 135L344 134z"/>
<path style="fill:#6dc6c8; stroke:none;" d="M88 135L89 136L88 135z"/>
<path style="fill:#f4dfe5; stroke:none;" d="M127 135L130 137L130 136L127 135z"/>
<path style="fill:#6dc6c8; stroke:none;" d="M128 135L129 136L128 135z"/>
<path style="fill:#f4dfe5; stroke:none;" d="M179 135L180 136L179 135M343 135L344 136L343 135M17 136L19 139L17 136z"/>
<path style="fill:#6dc6c8; stroke:none;" d="M90 136L91 137L90 136z"/>
<path style="fill:#f4dfe5; stroke:none;" d="M178 136L179 137L178 136M303 136L304 137L303 136M342 136L343 137L342 136z"/>
<path style="fill:#6dc6c8; stroke:none;" d="M18 137L19 138L18 137M92 137C99.6369 147.981 102.039 153.706 99 167L100 167C103.646 155.5 102.386 144.382 92 137z"/>
<path style="fill:#f4dfe5; stroke:none;" d="M93 137L94 138L93 137M130.667 137.333L131.333 137.667L130.667 137.333z"/>
<path style="fill:#6dc6c8; stroke:none;" d="M175 137L176 138L175 137z"/>
<path style="fill:#f4dfe5; stroke:none;" d="M176 137L177 138L176 137M304 137L305 138L304 137M340.667 137.333L341.333 137.667L340.667 137.333M94 138L95 139L94 138M132.667 138.333L133.333 138.667L132.667 138.333z"/>
<path style="fill:#6dc6c8; stroke:none;" d="M173 138L174 139L173 138z"/>
<path style="fill:#f4dfe5; stroke:none;" d="M174 138L175 139L174 138M305.667 138.333L306.333 138.667L305.667 138.333M338.667 138.333L339.333 138.667L338.667 138.333M19 139L20 140L19 139M95 139L96 140L95 139M134.667 139.333L135.333 139.667L134.667 139.333z"/>
<path style="fill:#6dc6c8; stroke:none;" d="M136 139L137 140L136 139M171 139L172 140L171 139z"/>
<path style="fill:#f4dfe5; stroke:none;" d="M172 139L173 140L172 139M307 139L308 140L307 139M336.667 139.333L337.333 139.667L336.667 139.333M20 140L21 141L20 140M96 140L97 141L96 140M137.667 140.333L138.333 140.667L137.667 140.333z"/>
<path style="fill:#6dc6c8; stroke:none;" d="M139 140L140 141L139 140M168 140L169 141L168 140z"/>
<path style="fill:#f4dfe5; stroke:none;" d="M169 140L170 141L169 140M209 140L209 141L259 141C246.11 135.591 223.049 140 209 140M308.667 140.333L309.333 140.667L308.667 140.333M334.667 140.333L335.333 140.667L334.667 140.333M350 140L350 141L380 141L350 140M394 140L394 141L436 141C425.012 136.389 405.957 140 394 140M478 140L478 141L520 141C509.012 136.389 489.957 140 478 140M531 140L531 141L574 141C562.774 136.29 543.219 140 531 140M584 140L584 141L626 141C615.012 136.389 595.957 140 584 140M21 141L22 142L21 141z"/>
<path style="fill:#6dc6c8; stroke:none;" d="M22 141L23 142L22 141z"/>
<path style="fill:#f4dfe5; stroke:none;" d="M97 141L98 142L97 141M140 141L140 142L143 142L140 141z"/>
<path style="fill:#6dc6c8; stroke:none;" d="M143 141L144 142L143 141M164.667 141.333L165.333 141.667L164.667 141.333z"/>
<path style="fill:#f4dfe5; stroke:none;" d="M166 141L167 142L166 141M310 141L310 142L313 142L310 141M330 141L330 142L333 142L330 141M23 142L23 143L26 144L26 145L21 147L21 148L28 145L28 144L23 142z"/>
<path style="fill:#6dc6c8; stroke:none;" d="M24 142L25 143L24 142z"/>
<path style="fill:#f4dfe5; stroke:none;" d="M98 142L99 143L98 142M144 142L144 143L158 144L144 142z"/>
<path style="fill:#6dc6c8; stroke:none;" d="M149 142L149 143L159 143L149 142z"/>
<path style="fill:#f4dfe5; stroke:none;" d="M159 142L159 143L164 143L159 142M313 142L313 143L324 144L313 142M324 142L324 143L330 143L324 142z"/>
<path style="fill:#6dc6c8; stroke:none;" d="M26 143L27 144L26 143z"/>
<path style="fill:#f4dfe5; stroke:none;" d="M99 144L100 145L99 144z"/>
<path style="fill:#6dc6c8; stroke:none;" d="M26 145L27 146L26 145M24 146L25 147L24 146z"/>
<path style="fill:#f4dfe5; stroke:none;" d="M100 146L101 147L100 146M21 181L21 180C7.69434 170.172 13.3959 158.934 21 148C8.01214 154.189 7.99363 174.88 21 181z"/>
<path style="fill:#6dc6c8; stroke:none;" d="M35 153L36 153L44 149C39.7516 147.287 37.0998 149.257 35 153z"/>
<path style="fill:#f4dfe5; stroke:none;" d="M101.333 148.667L101.667 149.333L101.333 148.667M38 149L37 151L38 149z"/>
<path style="fill:#010101; stroke:none;" d="M39.2245 150.067C31.4406 154.347 35.0979 167.22 41.0154 171.005C49.7541 176.596 66.2668 176.439 74.9846 170.856C81.3306 166.791 83.531 157.918 75.956 153.839C68.2216 149.674 57.5173 150.193 49 149.985C46.0229 149.913 41.9717 148.557 39.2245 150.067z"/>
<path style="fill:#f4dfe5; stroke:none;" d="M43 149L43 150L50 150L43 149z"/>
<path style="fill:#6dc6c8; stroke:none;" d="M50 149L50 150L61 150L50 149z"/>
<path style="fill:#f4dfe5; stroke:none;" d="M60 150L60 151L65 151L60 150z"/>
<path style="fill:#6dc6c8; stroke:none;" d="M65 150L65 151L68 151L65 150z"/>
<path style="fill:#f4dfe5; stroke:none;" d="M68 151L68 152L71 152L68 151z"/>
<path style="fill:#6dc6c8; stroke:none;" d="M71 151L72 152L71 151z"/>
<path style="fill:#f4dfe5; stroke:none;" d="M36 152L37 153L36 152M73.6667 152.333L74.3333 152.667L73.6667 152.333M35 153C32.5401 166.25 39.1664 174.705 53 175L53 174C46.0129 173.68 37.4285 170.595 35.4375 163C34.5545 159.632 36.0084 156.279 35 153M75.6667 153.333L76.3333 153.667L75.6667 153.333M102 153L102 159L103 159L102 153z"/>
<path style="fill:#6dc6c8; stroke:none;" d="M15 154L16 155L15 154M34.3333 154.667L34.6667 155.333L34.3333 154.667z"/>
<path style="fill:#f4dfe5; stroke:none;" d="M77.6667 154.333L78.3333 154.667L77.6667 154.333M79 155L80 156L79 155M80 156C81.0643 161.823 79.9882 164.961 77 170C81.8849 166.311 84.6856 161.022 80 156z"/>
<path style="fill:#6dc6c8; stroke:none;" d="M33 157L33 164L34 164L33 157M13 158L14 159L13 158M12 162L13 163L12 162z"/>
<path style="fill:#f4dfe5; stroke:none;" d="M101.333 162.667L101.667 163.333L101.333 162.667z"/>
<path style="fill:#6dc6c8; stroke:none;" d="M82 163L83 164L82 163M12.3333 165.667L12.6667 166.333L12.3333 165.667M34.3333 165.667L34.6667 166.333L34.3333 165.667z"/>
<path style="fill:#f4dfe5; stroke:none;" d="M100.333 165.667L100.667 166.333L100.333 165.667z"/>
<path style="fill:#6dc6c8; stroke:none;" d="M35 167L36 168L35 167M80 167L81 168L80 167z"/>
<path style="fill:#f4dfe5; stroke:none;" d="M99 167L96 172L99 167z"/>
<path style="fill:#6dc6c8; stroke:none;" d="M36 168L37 169L36 168M79 168L80 169L79 168M98 168L99 169L98 168M37 169L38 170L37 169M78 169L79 170L78 169M97 169L98 170L97 169M38 170L39 171L38 170z"/>
<path style="fill:#f4dfe5; stroke:none;" d="M74 172L77 170L74 172z"/>
<path style="fill:#6dc6c8; stroke:none;" d="M96 170L97 171L96 170M39 171L40 172L39 171M41 172L42 173L41 172z"/>
<path style="fill:#f4dfe5; stroke:none;" d="M72.6667 172.333L73.3333 172.667L72.6667 172.333M95 172L96 173L95 172z"/>
<path style="fill:#6dc6c8; stroke:none;" d="M14 173L15 174L14 173M43 173L44 174L43 173z"/>
<path style="fill:#f4dfe5; stroke:none;" d="M54 175L54 176L72 174L54 175M94 173L95 174L94 173z"/>
<path style="fill:#6dc6c8; stroke:none;" d="M46 174L47 175L46 174M68.6667 174.333L69.3333 174.667L68.6667 174.333z"/>
<path style="fill:#f4dfe5; stroke:none;" d="M93 174L94 175L93 174z"/>
<path style="fill:#6dc6c8; stroke:none;" d="M51 175L51 176L54 176L51 175M61 175L61 176L64 176L61 175M91 175L89 178L91 175z"/>
<path style="fill:#f4dfe5; stroke:none;" d="M92 175L93 176L92 175z"/>
<path style="fill:#6dc6c8; stroke:none;" d="M16 176L17 177L16 176z"/>
<path style="fill:#f4dfe5; stroke:none;" d="M91 176L92 177L91 176z"/>
<path style="fill:#6dc6c8; stroke:none;" d="M17 177L18 178L17 177z"/>
<path style="fill:#f4dfe5; stroke:none;" d="M90 177L91 178L90 177z"/>
<path style="fill:#6dc6c8; stroke:none;" d="M18 178L19 179L18 178M87 178L88 179L87 178z"/>
<path style="fill:#f4dfe5; stroke:none;" d="M88 178L89 179L88 178z"/>
<path style="fill:#6dc6c8; stroke:none;" d="M19 179L20 180L19 179M85 179L86 180L85 179z"/>
<path style="fill:#f4dfe5; stroke:none;" d="M86 179L87 180L86 179z"/>
<path style="fill:#6dc6c8; stroke:none;" d="M83 180L84 181L83 180z"/>
<path style="fill:#f4dfe5; stroke:none;" d="M84.6667 180.333L85.3333 180.667L84.6667 180.333M21 181L21 182L32 186L32 185L21 181z"/>
<path style="fill:#6dc6c8; stroke:none;" d="M22 181L23 182L22 181M81 181L82 182L81 181z"/>
<path style="fill:#f4dfe5; stroke:none;" d="M82.6667 181.333L83.3333 181.667L82.6667 181.333z"/>
<path style="fill:#6dc6c8; stroke:none;" d="M24 182L25 183L24 182M78.6667 182.333L79.3333 182.667L78.6667 182.333z"/>
<path style="fill:#f4dfe5; stroke:none;" d="M80.6667 182.333L81.3333 182.667L80.6667 182.333z"/>
<path style="fill:#6dc6c8; stroke:none;" d="M26 183L27 184L26 183M75.6667 183.333L76.3333 183.667L75.6667 183.333z"/>
<path style="fill:#f4dfe5; stroke:none;" d="M77.6667 183.333L78.3333 183.667L77.6667 183.333z"/>
<path style="fill:#6dc6c8; stroke:none;" d="M29 184L30 185L29 184M72.6667 184.333L73.3333 184.667L72.6667 184.333z"/>
<path style="fill:#f4dfe5; stroke:none;" d="M74.6667 184.333L75.3333 184.667L74.6667 184.333z"/>
<path style="fill:#6dc6c8; stroke:none;" d="M32.6667 185.333L33.3333 185.667L32.6667 185.333M68.6667 185.333L69.3333 185.667L68.6667 185.333z"/>
<path style="fill:#f4dfe5; stroke:none;" d="M70 185L70 186L73 186L70 185M33 186L33 187L36 187L33 186z"/>
<path style="fill:#6dc6c8; stroke:none;" d="M36 186L36 187L40 187L36 186M62 186L62 187L66 187L62 186z"/>
<path style="fill:#f4dfe5; stroke:none;" d="M66 186L66 187L69 187L66 186M39 187L39 188L44 188L39 187z"/>
<path style="fill:#6dc6c8; stroke:none;" d="M44 187L44 188L58 188L44 187z"/>
<path style="fill:#f4dfe5; stroke:none;" d="M58 187L58 188L63 188L58 187z"/>
</svg>
